# Blender v2.93.2 OBJ File: 'parsolplisvirk.blend'
# www.blender.org
mtllib parasolfullyfixed2.mtl
o Cone
v 0.000000 0.442178 -0.359448
v 0.070125 0.442178 -0.352542
v 0.137555 0.442178 -0.332087
v 0.199699 0.442178 -0.298870
v 0.254168 0.442178 -0.254168
v 0.298870 0.442178 -0.199699
v 0.332087 0.442178 -0.137555
v 0.352542 0.442178 -0.070125
v 0.359448 0.442178 0.000000
v 0.352542 0.442178 0.070125
v 0.332087 0.442178 0.137555
v 0.298870 0.442178 0.199699
v 0.254168 0.442178 0.254168
v 0.199699 0.442178 0.298870
v 0.137555 0.442178 0.332087
v 0.070125 0.442178 0.352542
v -0.000000 0.442178 0.359448
v -0.070125 0.442178 0.352542
v -0.137555 0.442178 0.332087
v -0.199699 0.442178 0.298870
v -0.254168 0.442178 0.254169
v -0.298870 0.442178 0.199699
v -0.332087 0.442178 0.137555
v -0.352542 0.442178 0.070125
v -0.359448 0.442178 0.000000
v -0.352542 0.442178 -0.070125
v -0.332087 0.442178 -0.137555
v -0.298870 0.442178 -0.199699
v -0.254168 0.442178 -0.254168
v -0.199699 0.442178 -0.298870
v -0.137555 0.442178 -0.332087
v -0.070125 0.442178 -0.352542
v 0.000000 0.558702 0.000000
v 0.000000 -0.558702 -4.480000
v 0.874005 -0.558702 -4.393918
v 1.714422 -0.558702 -4.138980
v 2.488955 -0.558702 -3.724984
v 3.167838 -0.558702 -3.167838
v 3.724984 -0.558702 -2.488955
v 4.138980 -0.558702 -1.714422
v 4.393918 -0.558702 -0.874005
v 4.480000 -0.558702 0.000000
v 4.393918 -0.558702 0.874005
v 4.138980 -0.558702 1.714422
v 3.724984 -0.558702 2.488955
v 3.167838 -0.558702 3.167838
v 2.488955 -0.558702 3.724984
v 1.714422 -0.558702 4.138980
v 0.874005 -0.558702 4.393918
v -0.000000 -0.558702 4.480000
v -0.874004 -0.558702 4.393918
v -1.714422 -0.558702 4.138980
v -2.488955 -0.558702 3.724983
v -3.167838 -0.558702 3.167839
v -3.724983 -0.558702 2.488955
v -4.138980 -0.558702 1.714422
v -4.393918 -0.558702 0.874005
v -4.480000 -0.558702 -0.000000
v -4.393918 -0.558702 -0.874005
v -4.138980 -0.558702 -1.714423
v -3.724984 -0.558702 -2.488954
v -3.167839 -0.558702 -3.167838
v -2.488955 -0.558702 -3.724984
v -1.714422 -0.558702 -4.138980
v -0.874004 -0.558702 -4.393918
v -0.000000 -0.558702 -4.255629
v 0.830232 -0.558702 -4.173858
v 1.628559 -0.558702 -3.931688
v 2.364300 -0.558702 -3.538426
v 3.009184 -0.558702 -3.009184
v 3.538426 -0.558702 -2.364300
v 3.931688 -0.558702 -1.628559
v 4.173858 -0.558702 -0.830232
v 4.255629 -0.558702 0.000000
v 4.173858 -0.558702 0.830232
v 3.931688 -0.558702 1.628558
v 3.538426 -0.558702 2.364300
v 3.009184 -0.558702 3.009184
v 2.364300 -0.558702 3.538426
v 1.628559 -0.558702 3.931688
v 0.830232 -0.558702 4.173858
v -0.000000 -0.558702 4.255629
v -0.830232 -0.558702 4.173858
v -1.628559 -0.558702 3.931688
v -2.364301 -0.558702 3.538425
v -3.009183 -0.558702 3.009184
v -3.538425 -0.558702 2.364301
v -3.931688 -0.558702 1.628559
v -4.173858 -0.558702 0.830232
v -4.255629 -0.558702 -0.000000
v -4.173858 -0.558702 -0.830232
v -3.931688 -0.558702 -1.628559
v -3.538426 -0.558702 -2.364300
v -3.009184 -0.558702 -3.009183
v -2.364301 -0.558702 -3.538426
v -1.628559 -0.558702 -3.931688
v -0.830232 -0.558702 -4.173858
v 0.000000 -0.841574 -4.480000
v 0.874005 -0.841574 -4.393918
v 1.714422 -0.841574 -4.138980
v 2.488955 -0.841574 -3.724984
v 3.167838 -0.841574 -3.167838
v 3.724984 -0.841574 -2.488955
v 4.138980 -0.841574 -1.714422
v 4.393918 -0.841574 -0.874005
v 4.480000 -0.841574 0.000000
v 4.393918 -0.841574 0.874005
v 4.138980 -0.841574 1.714422
v 3.724984 -0.841574 2.488955
v 3.167838 -0.841574 3.167838
v 2.488955 -0.841574 3.724984
v 1.714422 -0.841574 4.138980
v 0.874005 -0.841574 4.393918
v -0.000000 -0.841574 4.480000
v -0.874004 -0.841574 4.393918
v -1.714422 -0.841574 4.138980
v -2.488955 -0.841574 3.724983
v -3.167838 -0.841574 3.167839
v -3.724983 -0.841574 2.488955
v -4.138980 -0.841574 1.714422
v -4.393918 -0.841574 0.874005
v -4.480000 -0.841574 -0.000000
v -4.393918 -0.841574 -0.874005
v -4.138980 -0.841574 -1.714423
v -3.724984 -0.841574 -2.488954
v -3.167839 -0.841574 -3.167838
v -2.488955 -0.841574 -3.724984
v -1.714422 -0.841574 -4.138980
v -0.874004 -0.841574 -4.393918
v -0.000000 -0.841574 -4.255629
v 0.830232 -0.841574 -4.173858
v 1.628559 -0.841574 -3.931688
v 2.364300 -0.841574 -3.538426
v 3.009184 -0.841574 -3.009184
v 3.538426 -0.841574 -2.364300
v 3.931688 -0.841574 -1.628559
v 4.173858 -0.841574 -0.830232
v 4.255629 -0.841574 0.000000
v 4.173858 -0.841574 0.830232
v 3.931688 -0.841574 1.628558
v 3.538426 -0.841574 2.364300
v 3.009184 -0.841574 3.009184
v 2.364300 -0.841574 3.538426
v 1.628559 -0.841574 3.931688
v 0.830232 -0.841574 4.173858
v -0.000000 -0.841574 4.255629
v -0.830232 -0.841574 4.173858
v -1.628559 -0.841574 3.931688
v -2.364301 -0.841574 3.538425
v -3.009183 -0.841574 3.009184
v -3.538425 -0.841574 2.364301
v -3.931688 -0.841574 1.628559
v -4.173858 -0.841574 0.830232
v -4.255629 -0.841574 -0.000000
v -4.173858 -0.841574 -0.830232
v -3.931688 -0.841574 -1.628559
v -3.538426 -0.841574 -2.364300
v -3.009184 -0.841574 -3.009183
v -2.364301 -0.841574 -3.538426
v -1.628559 -0.841574 -3.931688
v -0.830232 -0.841574 -4.173858
vt 0.432254 0.593075
vt 0.338004 0.295702
vt 0.452847 0.593032
vt 0.223161 0.927186
vt 0.317410 0.668363
vt 0.247377 0.923127
vt 0.302848 0.918906
vt 0.331972 0.918906
vt 0.360537 0.920331
vt 0.452847 0.593032
vt 0.567691 0.295702
vt 0.473441 0.593075
vt 0.497657 0.593109
vt 0.553129 0.593144
vt 0.582253 0.593144
vt 0.610817 0.593132
vt 0.223161 0.066041
vt 0.223161 0.397922
vt 0.202007 0.068198
vt 0.177847 0.072674
vt 0.124305 0.087809
vt 0.096980 0.097887
vt 0.070686 0.109142
vt 0.025153 0.133426
vt 0.007664 0.145522
vt 0.243755 0.593075
vt 0.267971 0.593109
vt 0.323442 0.593144
vt 0.352566 0.593144
vt 0.381131 0.593132
vt 0.352566 0.668363
vt 0.323442 0.668363
vt 0.813730 0.822073
vt 0.786901 0.815320
vt 0.804674 0.744708
vt 0.831503 0.751461
vt 0.247377 0.995941
vt 0.223161 1.000000
vt 0.043417 0.470409
vt 0.020169 0.468533
vt 0.037941 0.397922
vt 0.061190 0.399797
vt 0.452847 0.668251
vt 0.432254 0.668294
vt 0.610817 0.668351
vt 0.582253 0.668363
vt 0.256186 0.370921
vt 0.236623 0.370962
vt 0.236623 0.295743
vt 0.256186 0.295702
vt 0.553129 0.668363
vt 0.267971 0.668328
vt 0.243755 0.668294
vt 0.344311 0.371016
vt 0.317177 0.371028
vt 0.317177 0.295809
vt 0.344311 0.295797
vt 0.223161 0.593032
vt 0.223161 0.668251
vt 0.289512 0.371028
vt 0.289512 0.295809
vt 0.236818 0.370994
vt 0.213815 0.370962
vt 0.213815 0.295743
vt 0.236818 0.295775
vt 0.497657 0.668328
vt 0.473441 0.668294
vt 0.194253 0.370921
vt 0.194253 0.295702
vt 0.452847 0.668251
vt 0.800840 0.978097
vt 0.799187 0.978100
vt 0.881155 0.712164
vt 0.900717 0.712123
vt 0.495570 0.972895
vt 0.493627 0.972561
vt 0.411660 0.741053
vt 0.434663 0.745005
vt 0.502357 0.973242
vt 0.500021 0.973242
vt 0.487356 0.749116
vt 0.515022 0.749116
vt 0.504649 0.973125
vt 0.542156 0.747728
vt 0.295782 0.636898
vt 0.294130 0.636895
vt 0.297725 0.636901
vt 0.304513 0.636904
vt 0.302176 0.636904
vt 0.306805 0.636903
vt 0.030655 0.762681
vt 0.028952 0.762680
vt 0.000000 0.468517
vt 0.032619 0.762840
vt 0.039284 0.764168
vt 0.037018 0.763598
vt 0.095495 0.479382
vt 0.122324 0.486135
vt 0.041478 0.764838
vt 0.148307 0.494071
vt 0.046823 0.767178
vt 0.045322 0.766373
vt 0.193811 0.512239
vt 0.211584 0.521773
vt 0.786006 0.978103
vt 0.784063 0.978100
vt 0.702096 0.712164
vt 0.725099 0.712196
vt 0.792794 0.978106
vt 0.790457 0.978106
vt 0.777793 0.712230
vt 0.805458 0.712230
vt 0.795086 0.978105
vt 0.832592 0.712219
vt 0.230566 0.134018
vt 0.230566 0.161684
vt 0.223161 0.162413
vt 0.223161 0.133289
vt 0.235963 0.106884
vt 0.228843 0.104724
vt 0.281483 0.038759
vt 0.261920 0.058322
vt 0.256168 0.053601
vt 0.276762 0.033008
vt 0.304486 0.023389
vt 0.300978 0.016827
vt 0.384844 0.007405
vt 0.357179 0.007405
vt 0.356450 0.000000
vt 0.385574 0.000000
vt 0.411978 0.012802
vt 0.414138 0.005682
vt 0.480103 0.058322
vt 0.460541 0.038759
vt 0.465261 0.033008
vt 0.485855 0.053601
vt 0.495473 0.081325
vt 0.502035 0.077817
vt 0.511458 0.161684
vt 0.511458 0.134018
vt 0.518863 0.133289
vt 0.518863 0.162413
vt 0.506060 0.188817
vt 0.513181 0.190977
vt 0.460541 0.256942
vt 0.480103 0.237380
vt 0.485855 0.242100
vt 0.465261 0.262694
vt 0.437538 0.272313
vt 0.441045 0.278875
vt 0.357179 0.288297
vt 0.384844 0.288297
vt 0.385574 0.295702
vt 0.356450 0.295702
vt 0.330045 0.282900
vt 0.327885 0.290020
vt 0.261920 0.237380
vt 0.281483 0.256942
vt 0.276762 0.262694
vt 0.256169 0.242100
vt 0.246550 0.214377
vt 0.239988 0.217884
vt 0.140097 0.415523
vt 0.166080 0.423459
vt 0.381131 0.668352
vt 0.661940 0.593075
vt 0.682534 0.593032
vt 0.682534 0.668251
vt 0.661940 0.668294
vt 0.682534 0.712123
vt 0.682534 0.636904
vt 0.702096 0.636945
vt 0.152694 0.004475
vt 0.176853 0.000000
vt 0.331972 0.991720
vt 0.302848 0.991720
vt 0.725099 0.636977
vt 0.881155 0.636945
vt 0.900717 0.636904
vt 0.360537 0.993145
vt 0.411660 0.668363
vt 0.434663 0.672316
vt 0.777793 0.637011
vt 0.805458 0.637011
vt 0.832592 0.636999
vt 0.487356 0.676427
vt 0.515022 0.676427
vt 0.071827 0.029688
vt 0.099152 0.019611
vt 0.542156 0.675039
vt 0.045533 0.040944
vt 0.958819 0.302093
vt 0.888785 0.004686
vt 0.983035 0.302059
vt 0.809877 0.290315
vt 0.879910 0.039242
vt 0.836784 0.287519
vt 0.865348 0.286093
vt 0.923037 0.287519
vt 0.949944 0.290315
vt 0.974160 0.294374
vt 0.825782 0.313812
vt 0.895816 0.016405
vt 0.852689 0.313836
vt 0.881254 0.313847
vt 0.938942 0.313836
vt 0.965849 0.313812
vt 0.990065 0.313778
vt 0.983964 0.086317
vt 0.907083 0.405580
vt 0.957124 0.082876
vt 0.928598 0.080804
vt 0.870891 0.081031
vt 0.843929 0.083321
vt 0.819629 0.086963
vt 0.818752 0.302093
vt 0.845659 0.302117
vt 0.874223 0.302129
vt 0.856112 0.146484
vt 0.858404 0.146940
vt 0.860563 0.147834
vt 0.862506 0.149133
vt 0.864158 0.150785
vt 0.865457 0.152728
vt 0.866351 0.154887
vt 0.866807 0.157179
vt 0.866807 0.159515
vt 0.866351 0.161807
vt 0.865457 0.163966
vt 0.864158 0.165909
vt 0.862506 0.167561
vt 0.860563 0.168860
vt 0.858404 0.169754
vt 0.856112 0.170210
vt 0.853776 0.170210
vt 0.851484 0.169754
vt 0.849325 0.168860
vt 0.847382 0.167561
vt 0.845730 0.165909
vt 0.844431 0.163966
vt 0.843537 0.161807
vt 0.843081 0.159515
vt 0.843081 0.157179
vt 0.843537 0.154887
vt 0.844431 0.152728
vt 0.845730 0.150785
vt 0.847382 0.149133
vt 0.849325 0.147834
vt 0.851484 0.146940
vt 0.853776 0.146484
vt 0.931912 0.302117
vt 0.990065 0.388997
vt 0.965849 0.389031
vt 0.877710 0.086625
vt 0.850575 0.087955
vt 0.850639 0.015141
vt 0.877774 0.013811
vt 0.938942 0.389055
vt 0.874223 0.377348
vt 0.845659 0.377336
vt 0.870106 0.087955
vt 0.844544 0.090588
vt 0.844608 0.017774
vt 0.870170 0.015141
vt 0.818752 0.377312
vt 0.996811 0.078129
vt 0.973808 0.078161
vt 0.973808 0.002942
vt 0.996811 0.002910
vt 0.948249 0.078183
vt 0.948249 0.002964
vt 0.983035 0.377278
vt 0.958819 0.377312
vt 0.881254 0.389066
vt 0.852689 0.389055
vt 0.893450 0.078195
vt 0.866316 0.078183
vt 0.866316 0.002964
vt 0.893450 0.002975
vt 0.825782 0.389031
vt 0.821184 0.014291
vt 0.845484 0.010648
vt 0.840756 0.078161
vt 0.840756 0.002942
vt 0.872446 0.008358
vt 0.996747 0.098788
vt 0.973744 0.102741
vt 0.973744 0.030052
vt 0.996747 0.026099
vt 0.912352 0.347171
vt 0.910409 0.347173
vt 0.971316 0.081267
vt 0.994319 0.081234
vt 0.903758 0.330861
vt 0.901599 0.330631
vt 0.840692 0.102741
vt 0.866252 0.105464
vt 0.906050 0.330978
vt 0.893385 0.106852
vt 0.912837 0.330631
vt 0.910678 0.330861
vt 0.948185 0.105464
vt 0.914780 0.330297
vt 0.903822 0.344070
vt 0.901663 0.344068
vt 0.906114 0.344071
vt 0.912901 0.344068
vt 0.910742 0.344070
vt 0.914844 0.344065
vt 0.887829 0.376641
vt 0.885670 0.376863
vt 0.825013 0.090588
vt 0.890121 0.376528
vt 0.896908 0.376873
vt 0.894750 0.376647
vt 0.932508 0.088027
vt 0.958066 0.090705
vt 0.898851 0.377200
vt 0.981065 0.094581
vt 0.901330 0.347175
vt 0.899171 0.347173
vt 0.838264 0.081266
vt 0.863823 0.081289
vt 0.903621 0.347176
vt 0.890957 0.081300
vt 0.908250 0.347175
vt 0.945756 0.081289
vt 0.697363 0.161684
vt 0.702760 0.188817
vt 0.695639 0.190977
vt 0.689958 0.162413
vt 0.713347 0.081325
vt 0.702760 0.106884
vt 0.695639 0.104724
vt 0.706785 0.077817
vt 0.728717 0.058322
vt 0.722965 0.053601
vt 0.796842 0.012802
vt 0.771282 0.023389
vt 0.767775 0.016827
vt 0.794682 0.005682
vt 0.823976 0.007405
vt 0.823246 0.000000
vt 0.904335 0.023389
vt 0.878775 0.012802
vt 0.880935 0.005682
vt 0.907842 0.016827
vt 0.927338 0.038759
vt 0.932058 0.033008
vt 0.972857 0.106884
vt 0.962270 0.081325
vt 0.968832 0.077817
vt 0.979977 0.104724
vt 0.978255 0.134018
vt 0.985659 0.133289
vt 0.962270 0.214377
vt 0.972857 0.188817
vt 0.979977 0.190977
vt 0.968832 0.217884
vt 0.946900 0.237380
vt 0.952652 0.242100
vt 0.878775 0.282900
vt 0.904335 0.272313
vt 0.907842 0.278875
vt 0.880935 0.290020
vt 0.851641 0.288297
vt 0.852371 0.295702
vt 0.771282 0.272313
vt 0.796842 0.282900
vt 0.794682 0.290020
vt 0.767775 0.278875
vt 0.748279 0.256942
vt 0.743559 0.262694
vt 0.713347 0.214377
vt 0.706785 0.217884
vt 0.836784 0.360333
vt 0.809877 0.363129
vt 0.932572 0.015213
vt 0.958129 0.017891
vt 0.865348 0.358908
vt 0.981129 0.021766
vt 0.931912 0.377336
vt 0.971316 0.006047
vt 0.994319 0.006015
vt 0.838264 0.006047
vt 0.863823 0.006070
vt 0.958679 0.010204
vt 0.985519 0.013645
vt 0.890957 0.006081
vt 0.840692 0.030052
vt 0.866252 0.032775
vt 0.930153 0.008132
vt 0.949944 0.363129
vt 0.923037 0.360333
vt 0.893385 0.034163
vt 0.945756 0.006070
vt 0.974160 0.367188
vt 0.948185 0.032775
vn 0.0706 0.9700 -0.2326
vn 0.1146 0.9700 -0.2144
vn 0.2144 0.9700 -0.1146
vn 0.2326 0.9700 -0.0706
vn 0.2326 0.9700 0.0706
vn 0.2144 0.9700 0.1146
vn 0.1146 0.9700 0.2144
vn 0.0706 0.9700 0.2326
vn -0.0706 0.9700 0.2326
vn -0.1146 0.9700 0.2144
vn -0.2144 0.9700 0.1146
vn -0.2326 0.9700 0.0706
vn -0.2326 0.9700 -0.0706
vn -0.2144 0.9700 -0.1146
vn -0.1146 0.9700 -0.2144
vn -0.0706 0.9700 -0.2326
vn -0.4714 0.0000 -0.8819
vn 0.8819 0.0000 -0.4714
vn 0.4714 0.0000 -0.8819
vn 0.2903 0.0000 -0.9569
vn 0.2903 0.0000 0.9569
vn 0.4714 0.0000 0.8819
vn -0.8819 0.0000 -0.4714
vn -0.2903 0.0000 -0.9569
vn -0.9569 0.0000 -0.2903
vn 0.8819 0.0000 0.4714
vn 0.9569 0.0000 0.2903
vn -0.0726 -0.9683 0.2392
vn -0.1178 -0.9683 0.2204
vn -0.2204 -0.9683 0.1178
vn -0.2392 -0.9683 0.0726
vn -0.2392 -0.9683 -0.0726
vn -0.2204 -0.9683 -0.1178
vn -0.1178 -0.9683 -0.2204
vn -0.0726 -0.9683 -0.2392
vn 0.0726 -0.9683 -0.2392
vn 0.1178 -0.9683 -0.2204
vn 0.2204 -0.9683 -0.1178
vn 0.2392 -0.9683 -0.0726
vn 0.2392 -0.9683 0.0726
vn 0.2204 -0.9683 0.1178
vn 0.1178 -0.9683 0.2204
vn 0.0726 -0.9683 0.2392
vn 0.0000 -1.0000 -0.0000
vn 0.9569 0.0000 -0.2903
vn -0.2903 0.0000 0.9569
vn -0.4714 0.0000 0.8819
vn -0.8819 0.0000 0.4714
vn -0.9569 0.0000 0.2903
vn 0.0238 0.9700 -0.2419
vn 0.1542 0.9700 -0.1879
vn 0.1879 0.9700 -0.1542
vn 0.2419 0.9700 -0.0238
vn 0.2419 0.9700 0.0238
vn 0.1879 0.9700 0.1542
vn 0.1542 0.9700 0.1879
vn 0.0238 0.9700 0.2419
vn -0.0238 0.9700 0.2419
vn -0.1542 0.9700 0.1879
vn -0.1879 0.9700 0.1542
vn -0.2419 0.9700 0.0238
vn -0.2419 0.9700 -0.0238
vn -0.1879 0.9700 -0.1542
vn -0.1542 0.9700 -0.1879
vn -0.0238 0.9700 -0.2419
vn -0.0980 0.0000 0.9952
vn 0.7730 0.0000 -0.6344
vn 0.0980 0.0000 0.9952
vn -0.6344 0.0000 -0.7730
vn 0.6344 0.0000 -0.7730
vn -0.7730 0.0000 -0.6344
vn 0.0980 0.0000 -0.9952
vn -0.0980 0.0000 -0.9952
vn 0.6344 0.0000 0.7730
vn 0.7730 0.0000 0.6344
vn -0.9952 0.0000 -0.0980
vn -0.9952 0.0000 0.0980
vn -0.0245 -0.9683 0.2487
vn -0.1586 -0.9683 0.1932
vn -0.1932 -0.9683 0.1586
vn -0.2487 -0.9683 0.0245
vn -0.2487 -0.9683 -0.0245
vn -0.1932 -0.9683 -0.1586
vn -0.1586 -0.9683 -0.1932
vn -0.0245 -0.9683 -0.2487
vn 0.0245 -0.9683 -0.2487
vn 0.1586 -0.9683 -0.1932
vn 0.1932 -0.9683 -0.1586
vn 0.2487 -0.9683 -0.0245
vn 0.2487 -0.9683 0.0245
vn 0.1932 -0.9683 0.1586
vn 0.1586 -0.9683 0.1932
vn 0.0245 -0.9683 0.2487
vn 0.9952 0.0000 -0.0980
vn 0.9952 0.0000 0.0980
vn -0.6344 0.0000 0.7730
vn -0.7730 0.0000 0.6344
usemtl Material.001
s off
f 35/1/1 33/2/1 36/3/1
f 36/4/2 33/5/2 37/6/2
f 39/7/3 33/5/3 40/8/3
f 40/8/4 33/5/4 41/9/4
f 43/10/5 33/11/5 44/12/5
f 44/12/6 33/11/6 45/13/6
f 47/14/7 33/11/7 48/15/7
f 48/15/8 33/11/8 49/16/8
f 51/17/9 33/18/9 52/19/9
f 52/19/10 33/18/10 53/20/10
f 55/21/11 33/18/11 56/22/11
f 56/22/12 33/18/12 57/23/12
f 59/24/13 33/18/13 60/25/13
f 60/26/14 33/2/14 61/27/14
f 63/28/15 33/2/15 64/29/15
f 64/29/16 33/2/16 65/30/16
f 63/28/17 64/29/17 128/31/17 127/32/17
f 88/33/18 87/34/18 151/35/18 152/36/18
f 36/4/19 37/6/19 101/37/19 100/38/19
f 85/39/19 84/40/19 148/41/19 149/42/19
f 35/1/20 36/3/20 100/43/20 99/44/20
f 48/15/21 49/16/21 113/45/21 112/46/21
f 84/47/20 83/48/20 147/49/20 148/50/20
f 47/14/22 48/15/22 112/46/22 111/51/22
f 60/26/23 61/27/23 125/52/23 124/53/23
f 81/54/24 80/55/24 144/56/24 145/57/24
f 59/58/25 60/26/25 124/53/25 123/59/25
f 80/55/17 79/60/17 143/61/17 144/56/17
f 77/62/23 76/63/23 140/64/23 141/65/23
f 44/12/26 45/13/26 109/66/26 108/67/26
f 76/63/25 75/68/25 139/69/25 140/64/25
f 43/10/27 44/12/27 108/67/27 107/70/27
f 3/71/28 2/72/28 67/73/28 68/74/28
f 4/75/29 3/76/29 68/77/29 69/78/29
f 7/79/30 6/80/30 71/81/30 72/82/30
f 8/83/31 7/79/31 72/82/31 73/84/31
f 11/85/32 10/86/32 75/68/32 76/63/32
f 12/87/33 11/85/33 76/63/33 77/62/33
f 15/88/34 14/89/34 79/60/34 80/55/34
f 16/90/35 15/88/35 80/55/35 81/54/35
f 19/91/36 18/92/36 83/93/36 84/40/36
f 20/94/37 19/91/37 84/40/37 85/39/37
f 23/95/38 22/96/38 87/97/38 88/98/38
f 24/99/39 23/95/39 88/98/39 89/100/39
f 27/101/40 26/102/40 91/103/40 92/104/40
f 28/105/41 27/106/41 92/107/41 93/108/41
f 31/109/42 30/110/42 95/111/42 96/112/42
f 32/113/43 31/109/43 96/112/43 97/114/43
f 132/115/44 131/116/44 99/117/44 100/118/44
f 133/119/44 132/115/44 100/118/44 101/120/44
f 136/121/44 135/122/44 103/123/44 104/124/44
f 137/125/44 136/121/44 104/124/44 105/126/44
f 140/127/44 139/128/44 107/129/44 108/130/44
f 141/131/44 140/127/44 108/130/44 109/132/44
f 144/133/44 143/134/44 111/135/44 112/136/44
f 145/137/44 144/133/44 112/136/44 113/138/44
f 148/139/44 147/140/44 115/141/44 116/142/44
f 149/143/44 148/139/44 116/142/44 117/144/44
f 152/145/44 151/146/44 119/147/44 120/148/44
f 153/149/44 152/145/44 120/148/44 121/150/44
f 156/151/44 155/152/44 123/153/44 124/154/44
f 157/155/44 156/151/44 124/154/44 125/156/44
f 160/157/44 159/158/44 127/159/44 128/160/44
f 161/161/44 160/157/44 128/160/44 129/162/44
f 89/100/45 88/98/45 152/163/45 153/164/45
f 64/29/24 65/30/24 129/165/24 128/31/24
f 51/166/46 52/167/46 116/168/46 115/169/46
f 92/107/27 91/170/27 155/171/27 156/172/27
f 52/19/47 53/20/47 117/173/47 116/174/47
f 39/7/18 40/8/18 104/175/18 103/176/18
f 93/108/26 92/107/26 156/172/26 157/177/26
f 68/74/46 67/73/46 131/178/46 132/179/46
f 40/8/45 41/9/45 105/180/45 104/175/45
f 69/78/47 68/77/47 132/181/47 133/182/47
f 96/112/22 95/111/22 159/183/22 160/184/22
f 97/114/21 96/112/21 160/184/21 161/185/21
f 72/82/48 71/81/48 135/186/48 136/187/48
f 55/21/48 56/22/48 120/188/48 119/189/48
f 73/84/49 72/82/49 136/187/49 137/190/49
f 56/22/49 57/23/49 121/191/49 120/188/49
usemtl Material.002
f 34/192/50 33/193/50 35/194/50
f 37/195/51 33/196/51 38/197/51
f 38/197/52 33/196/52 39/198/52
f 41/199/53 33/196/53 42/200/53
f 42/200/54 33/196/54 43/201/54
f 45/202/55 33/203/55 46/204/55
f 46/204/56 33/203/56 47/205/56
f 49/206/57 33/203/57 50/207/57
f 50/207/58 33/203/58 51/208/58
f 53/209/59 33/210/59 54/211/59
f 54/211/60 33/210/60 55/212/60
f 57/213/61 33/210/61 58/214/61
f 58/214/62 33/210/62 59/215/62
f 61/216/63 33/193/63 62/217/63
f 62/217/64 33/193/64 63/218/64
f 1/219/44 2/220/44 3/221/44 4/222/44 5/223/44 6/224/44 7/225/44 8/226/44 9/227/44 10/228/44 11/229/44 12/230/44 13/231/44 14/232/44 15/233/44 16/234/44 17/235/44 18/236/44 19/237/44 20/238/44 21/239/44 22/240/44 23/241/44 24/242/44 25/243/44 26/244/44 27/245/44 28/246/44 29/247/44 30/248/44 31/249/44 32/250/44
f 65/251/65 33/193/65 34/192/65
f 50/207/66 51/208/66 115/252/66 114/253/66
f 87/254/67 86/255/67 150/256/67 151/257/67
f 49/206/68 50/207/68 114/253/68 113/258/68
f 62/217/69 63/218/69 127/259/69 126/260/69
f 86/261/70 85/262/70 149/263/70 150/264/70
f 61/216/71 62/217/71 126/260/71 125/265/71
f 83/266/72 82/267/72 146/268/72 147/269/72
f 82/267/73 81/270/73 145/271/73 146/268/73
f 34/192/72 35/194/72 99/272/72 98/273/72
f 46/204/74 47/205/74 111/274/74 110/275/74
f 79/276/69 78/277/69 142/278/69 143/279/69
f 45/202/75 46/204/75 110/275/75 109/280/75
f 58/214/76 59/215/76 123/281/76 122/282/76
f 78/277/71 77/283/71 141/284/71 142/278/71
f 57/213/77 58/214/77 122/282/77 121/285/77
f 75/286/76 74/287/76 138/288/76 139/289/76
f 2/290/78 1/291/78 66/292/78 67/293/78
f 5/294/79 4/295/79 69/296/79 70/297/79
f 6/298/80 5/294/80 70/297/80 71/299/80
f 9/300/81 8/301/81 73/302/81 74/287/81
f 10/303/82 9/300/82 74/287/82 75/286/82
f 13/304/83 12/305/83 77/283/83 78/277/83
f 14/306/84 13/304/84 78/277/84 79/276/84
f 17/307/85 16/308/85 81/270/85 82/267/85
f 18/309/86 17/307/86 82/267/86 83/266/86
f 21/310/87 20/311/87 85/312/87 86/255/87
f 22/313/88 21/310/88 86/255/88 87/254/88
f 25/314/89 24/315/89 89/316/89 90/317/89
f 26/318/90 25/314/90 90/317/90 91/319/90
f 29/320/91 28/321/91 93/322/91 94/323/91
f 30/324/92 29/320/92 94/323/92 95/325/92
f 1/291/93 32/326/93 97/327/93 66/292/93
f 131/328/44 130/329/44 98/330/44 99/331/44
f 134/332/44 133/333/44 101/334/44 102/335/44
f 135/336/44 134/332/44 102/335/44 103/337/44
f 138/338/44 137/339/44 105/340/44 106/341/44
f 139/342/44 138/338/44 106/341/44 107/343/44
f 142/344/44 141/345/44 109/346/44 110/347/44
f 143/348/44 142/344/44 110/347/44 111/349/44
f 146/350/44 145/351/44 113/352/44 114/353/44
f 147/354/44 146/350/44 114/353/44 115/355/44
f 150/356/44 149/357/44 117/358/44 118/359/44
f 151/360/44 150/356/44 118/359/44 119/361/44
f 154/362/44 153/363/44 121/364/44 122/365/44
f 155/366/44 154/362/44 122/365/44 123/367/44
f 158/368/44 157/369/44 125/370/44 126/371/44
f 159/372/44 158/368/44 126/371/44 127/373/44
f 130/329/44 161/374/44 129/375/44 98/330/44
f 37/195/70 38/197/70 102/376/70 101/377/70
f 90/317/94 89/316/94 153/378/94 154/379/94
f 38/197/67 39/198/67 103/380/67 102/376/67
f 91/319/95 90/317/95 154/379/95 155/381/95
f 65/251/73 34/192/73 98/273/73 129/382/73
f 67/293/66 66/292/66 130/383/66 131/384/66
f 94/323/75 93/322/75 157/385/75 158/386/75
f 53/209/96 54/211/96 118/387/96 117/388/96
f 95/325/74 94/323/74 158/386/74 159/389/74
f 70/297/96 69/296/96 133/390/96 134/391/96
f 54/211/97 55/212/97 119/392/97 118/387/97
f 41/199/94 42/200/94 106/393/94 105/394/94
f 71/299/97 70/297/97 134/391/97 135/395/97
f 66/292/68 97/327/68 161/396/68 130/383/68
f 42/200/95 43/201/95 107/397/95 106/393/95
f 74/287/77 73/302/77 137/398/77 138/288/77
