mtllib plane.mtl
o Default
v 0 -0.0001970979428733699 2.4998749792575836
v 2.5 0.00005290204171615187 -0.00012500624507083558
v 0 0.00005290204171615187 -0.00012500624507083558
v 2.5 -0.0001970979428733699 2.4998749792575836
vt 0 0
vt 1 1
vt 0 1
vt 0 0
vt 1 0
vt 1 1
vn 0 0.9999999950000007 0.00009999999391570259
vn 0 0.9999999950000007 0.00009999999391570259
vn 0 0.9999999950000007 0.00009999999391570259
vn 0 0.9999999950000007 0.00009999999391570259
vn 0 0.9999999950000007 0.00009999999391570259
vn 0 0.9999999950000007 0.00009999999391570259
g Scene
usemtl 0
f 1/1/1 2/2/2 3/3/3
f 1/4/4 4/5/5 2/6/6
